<svg width="600" height="900" viewBox="0 0 600 900" fill="none" xmlns="http://www.w3.org/2000/svg">
<g clip-path="url(#clip0_199_74)">
<rect width="600" height="900" rx="30" fill="white"/>
<path d="M497.392 232.575C534.132 265.874 546.167 320.233 535.061 381.931C523.965 443.571 489.82 511.967 435.096 572.348C380.372 632.728 315.652 673.415 255.397 690.501C195.085 707.603 139.808 700.956 103.068 667.658C66.3277 634.359 54.2927 580 65.3989 518.302C76.4949 456.662 110.64 388.265 165.364 327.884C220.088 267.504 284.807 226.818 345.063 209.732C405.374 192.63 460.652 199.277 497.392 232.575Z" stroke="#161616" stroke-width="7"/>
<path d="M485.709 101.84V66H497.049V101.84H485.709ZM473.529 89.1V78.74H509.229V89.1H473.529ZM514.245 98.97V85.74L533.005 55.36L543.295 61.87L527.825 87.07L528.875 88.61H558.625V98.97H514.245ZM541.055 108V70.97H553.095V108H541.055Z" fill="#161616"/>
<path d="M55.26 833.84V798H66.6V833.84H55.26ZM43.08 821.1V810.74H78.78V821.1H43.08ZM83.7959 830.97V817.74L102.556 787.36L112.846 793.87L97.3759 819.07L98.4259 820.61H128.176V830.97H83.7959ZM110.606 840V802.97H122.646V840H110.606Z" fill="#161616"/>
<rect x="144.87" y="428.459" width="159.609" height="216.042" rx="20" transform="rotate(-47.1139 144.87 428.459)" fill="#4D4D4D"/>
<rect x="173.866" y="383.414" width="159.609" height="216.042" rx="20" transform="rotate(-28.8464 173.866 383.414)" fill="#383838"/>
<rect x="219.549" y="358.452" width="159.609" height="216.042" rx="20" transform="rotate(-14.2244 219.549 358.452)" fill="#282828"/>
<rect x="268.658" y="350.969" width="159.609" height="216.042" rx="20" transform="rotate(1.10223 268.658 350.969)" fill="#161616"/>
</g>
<rect x="3.5" y="3.5" width="593" height="893" rx="26.5" stroke="#161616" stroke-width="7"/>
<defs>
<clipPath id="clip0_199_74">
<rect width="600" height="900" rx="30" fill="white"/>
</clipPath>
</defs>
</svg>
