<svg width="600" height="900" viewBox="0 0 600 900" fill="none" xmlns="http://www.w3.org/2000/svg">
<g clip-path="url(#clip0_204_345)">
<rect width="600" height="900" rx="30" fill="white"/>
<path d="M497.392 232.575C534.132 265.874 546.167 320.233 535.061 381.931C523.965 443.571 489.82 511.967 435.096 572.348C380.372 632.728 315.652 673.415 255.397 690.501C195.085 707.603 139.808 700.956 103.068 667.658C66.3277 634.359 54.2927 580 65.3989 518.302C76.4949 456.662 110.64 388.265 165.364 327.884C220.088 267.504 284.807 226.818 345.063 209.732C405.374 192.63 460.652 199.277 497.392 232.575Z" stroke="#161616" stroke-width="7"/>
<rect x="494" y="40" width="66" height="88" rx="20" fill="#161616"/>
<path d="M527.434 109.4C523.328 109.4 519.758 108.63 516.724 107.09C513.738 105.503 511.428 103.38 509.794 100.72C508.161 98.06 507.344 95.0733 507.344 91.76H519.944C519.944 93.16 520.271 94.3733 520.924 95.4C521.578 96.4267 522.488 97.22 523.654 97.78C524.821 98.34 526.128 98.62 527.574 98.62C529.254 98.62 530.654 98.27 531.774 97.57C532.941 96.87 533.804 95.9133 534.364 94.7C534.971 93.4867 535.274 92.11 535.274 90.57C535.274 89.03 534.971 87.6533 534.364 86.44C533.804 85.2267 532.964 84.27 531.844 83.57C530.724 82.87 529.348 82.52 527.714 82.52C526.081 82.52 524.658 82.8933 523.444 83.64C522.231 84.34 521.344 85.2267 520.784 86.3H508.534L511.124 56.9H543.534V68.1H515.884L521.204 64.95L519.804 80.42L516.864 79.72C518.264 77.9467 519.944 76.43 521.904 75.17C523.911 73.91 526.664 73.28 530.164 73.28C533.804 73.28 536.931 74.0267 539.544 75.52C542.204 76.9667 544.258 78.9733 545.704 81.54C547.151 84.06 547.874 86.9533 547.874 90.22V91.06C547.874 94.3267 547.081 97.36 545.494 100.16C543.908 102.913 541.598 105.153 538.564 106.88C535.531 108.56 531.821 109.4 527.434 109.4Z" fill="#F2F2F2"/>
<rect x="40" y="772" width="66" height="88" rx="20" fill="#161616"/>
<path d="M73.4343 841.4C69.3276 841.4 65.7576 840.63 62.7243 839.09C59.7376 837.503 57.4276 835.38 55.7943 832.72C54.161 830.06 53.3443 827.073 53.3443 823.76H65.9443C65.9443 825.16 66.271 826.373 66.9243 827.4C67.5776 828.427 68.4876 829.22 69.6543 829.78C70.821 830.34 72.1276 830.62 73.5743 830.62C75.2543 830.62 76.6543 830.27 77.7743 829.57C78.941 828.87 79.8043 827.913 80.3643 826.7C80.971 825.487 81.2743 824.11 81.2743 822.57C81.2743 821.03 80.971 819.653 80.3643 818.44C79.8043 817.227 78.9643 816.27 77.8443 815.57C76.7243 814.87 75.3476 814.52 73.7143 814.52C72.081 814.52 70.6576 814.893 69.4443 815.64C68.231 816.34 67.3443 817.227 66.7843 818.3H54.5343L57.1243 788.9H89.5343V800.1H61.8843L67.2043 796.95L65.8043 812.42L62.8643 811.72C64.2643 809.947 65.9443 808.43 67.9043 807.17C69.911 805.91 72.6643 805.28 76.1643 805.28C79.8043 805.28 82.931 806.027 85.5443 807.52C88.2043 808.967 90.2576 810.973 91.7043 813.54C93.151 816.06 93.8743 818.953 93.8743 822.22V823.06C93.8743 826.327 93.081 829.36 91.4943 832.16C89.9076 834.913 87.5976 837.153 84.5643 838.88C81.531 840.56 77.821 841.4 73.4343 841.4Z" fill="#F2F2F2"/>
<rect x="201" y="355" width="198" height="189" rx="94.5" fill="#161616"/>
<path d="M300.645 504C291.845 504 284.195 502.35 277.695 499.05C271.295 495.65 266.345 491.1 262.845 485.4C259.345 479.7 257.595 473.3 257.595 466.2H284.595C284.595 469.2 285.295 471.8 286.695 474C288.095 476.2 290.045 477.9 292.545 479.1C295.045 480.3 297.845 480.9 300.945 480.9C304.545 480.9 307.545 480.15 309.945 478.65C312.445 477.15 314.295 475.1 315.495 472.5C316.795 469.9 317.445 466.95 317.445 463.65C317.445 460.35 316.795 457.4 315.495 454.8C314.295 452.2 312.495 450.15 310.095 448.65C307.695 447.15 304.745 446.4 301.245 446.4C297.745 446.4 294.695 447.2 292.095 448.8C289.495 450.3 287.595 452.2 286.395 454.5H260.145L265.695 391.5H335.145V415.5H275.895L287.295 408.75L284.295 441.9L277.995 440.4C280.995 436.6 284.595 433.35 288.795 430.65C293.095 427.95 298.995 426.6 306.495 426.6C314.295 426.6 320.995 428.2 326.595 431.4C332.295 434.5 336.695 438.8 339.795 444.3C342.895 449.7 344.445 455.9 344.445 462.9V464.7C344.445 471.7 342.745 478.2 339.345 484.2C335.945 490.1 330.995 494.9 324.495 498.6C317.995 502.2 310.045 504 300.645 504Z" fill="#F2F2F2"/>
</g>
<rect x="3.5" y="3.5" width="593" height="893" rx="26.5" stroke="#161616" stroke-width="7"/>
<defs>
<clipPath id="clip0_204_345">
<rect width="600" height="900" rx="30" fill="white"/>
</clipPath>
</defs>
</svg>
