<svg width="600" height="900" viewBox="0 0 600 900" fill="none" xmlns="http://www.w3.org/2000/svg">
<g clip-path="url(#clip0_204_357)">
<rect width="600" height="900" rx="30" fill="white"/>
<path d="M497.392 232.575C534.132 265.874 546.167 320.233 535.061 381.931C523.965 443.571 489.82 511.967 435.096 572.348C380.372 632.728 315.652 673.415 255.397 690.501C195.085 707.603 139.808 700.956 103.068 667.658C66.3277 634.359 54.2927 580 65.3989 518.302C76.4949 456.662 110.64 388.265 165.364 327.884C220.088 267.504 284.807 226.818 345.063 209.732C405.374 192.63 460.652 199.277 497.392 232.575Z" stroke="#161616" stroke-width="7"/>
<rect x="491" y="40" width="69" height="88" rx="20" fill="#161616"/>
<path d="M526.6 109.54C522.82 109.54 519.53 108.933 516.73 107.72C513.976 106.46 511.69 104.71 509.87 102.47C508.096 100.23 506.766 97.64 505.88 94.7C505.04 91.7133 504.62 88.5167 504.62 85.11V82.31C504.62 73.6767 506.836 67.2133 511.27 62.92C515.703 58.6267 522.283 56.48 531.01 56.48C532.736 56.48 534.51 56.5267 536.33 56.62C538.15 56.7133 539.853 56.8533 541.44 57.04V67.96C539.9 67.82 538.173 67.7033 536.26 67.61C534.346 67.47 532.456 67.4 530.59 67.4C526.996 67.4 524.173 67.96 522.12 69.08C520.113 70.2 518.69 71.9033 517.85 74.19C517.056 76.4767 516.66 79.37 516.66 82.87V88.89L513.86 89.03C513.906 85.5767 514.606 82.7067 515.96 80.42C517.36 78.0867 519.273 76.3367 521.7 75.17C524.126 74.0033 526.926 73.42 530.1 73.42C533.693 73.42 536.796 74.1433 539.41 75.59C542.07 76.99 544.123 78.9733 545.57 81.54C547.016 84.1067 547.74 87.1633 547.74 90.71C547.74 94.5367 546.83 97.8733 545.01 100.72C543.236 103.52 540.763 105.69 537.59 107.23C534.416 108.77 530.753 109.54 526.6 109.54ZM526.18 98.76C528.046 98.76 529.633 98.4333 530.94 97.78C532.293 97.1267 533.32 96.2167 534.02 95.05C534.766 93.8833 535.14 92.53 535.14 90.99C535.14 89.4033 534.79 88.05 534.09 86.93C533.39 85.7633 532.386 84.8533 531.08 84.2C529.773 83.5467 528.21 83.22 526.39 83.22C524.756 83.22 523.24 83.5 521.84 84.06C520.44 84.62 519.32 85.4833 518.48 86.65C517.64 87.77 517.22 89.2167 517.22 90.99C517.22 92.53 517.57 93.8833 518.27 95.05C518.97 96.2167 519.973 97.1267 521.28 97.78C522.633 98.4333 524.266 98.76 526.18 98.76Z" fill="#F2F2F2"/>
<rect x="40" y="772" width="69" height="88" rx="20" fill="#161616"/>
<path d="M75.5998 841.54C71.8198 841.54 68.5298 840.933 65.7298 839.72C62.9764 838.46 60.6898 836.71 58.8698 834.47C57.0964 832.23 55.7664 829.64 54.8798 826.7C54.0398 823.713 53.6198 820.517 53.6198 817.11V814.31C53.6198 805.677 55.8364 799.213 60.2698 794.92C64.7031 790.627 71.2831 788.48 80.0098 788.48C81.7364 788.48 83.5098 788.527 85.3298 788.62C87.1498 788.713 88.8531 788.853 90.4398 789.04V799.96C88.8998 799.82 87.1731 799.703 85.2598 799.61C83.3464 799.47 81.4564 799.4 79.5898 799.4C75.9964 799.4 73.1731 799.96 71.1198 801.08C69.1131 802.2 67.6898 803.903 66.8498 806.19C66.0564 808.477 65.6598 811.37 65.6598 814.87V820.89L62.8598 821.03C62.9064 817.577 63.6064 814.707 64.9598 812.42C66.3598 810.087 68.2731 808.337 70.6998 807.17C73.1264 806.003 75.9264 805.42 79.0998 805.42C82.6931 805.42 85.7964 806.143 88.4098 807.59C91.0698 808.99 93.1231 810.973 94.5698 813.54C96.0164 816.107 96.7398 819.163 96.7398 822.71C96.7398 826.537 95.8298 829.873 94.0098 832.72C92.2364 835.52 89.7631 837.69 86.5898 839.23C83.4164 840.77 79.7531 841.54 75.5998 841.54ZM75.1798 830.76C77.0464 830.76 78.6331 830.433 79.9398 829.78C81.2931 829.127 82.3198 828.217 83.0198 827.05C83.7664 825.883 84.1398 824.53 84.1398 822.99C84.1398 821.403 83.7898 820.05 83.0898 818.93C82.3898 817.763 81.3864 816.853 80.0798 816.2C78.7731 815.547 77.2098 815.22 75.3898 815.22C73.7564 815.22 72.2398 815.5 70.8398 816.06C69.4398 816.62 68.3198 817.483 67.4798 818.65C66.6398 819.77 66.2198 821.217 66.2198 822.99C66.2198 824.53 66.5698 825.883 67.2698 827.05C67.9698 828.217 68.9731 829.127 70.2798 829.78C71.6331 830.433 73.2664 830.76 75.1798 830.76Z" fill="#F2F2F2"/>
<rect x="197.5" y="355" width="205" height="189" rx="94.5" fill="#161616"/>
<path d="M302.357 504.3C294.257 504.3 287.207 503 281.207 500.4C275.307 497.7 270.407 493.95 266.507 489.15C262.707 484.35 259.857 478.8 257.957 472.5C256.157 466.1 255.257 459.25 255.257 451.95V445.95C255.257 427.45 260.007 413.6 269.507 404.4C279.007 395.2 293.107 390.6 311.807 390.6C315.507 390.6 319.307 390.7 323.207 390.9C327.107 391.1 330.757 391.4 334.157 391.8V415.2C330.857 414.9 327.157 414.65 323.057 414.45C318.957 414.15 314.907 414 310.907 414C303.207 414 297.157 415.2 292.757 417.6C288.457 420 285.407 423.65 283.607 428.55C281.907 433.45 281.057 439.65 281.057 447.15V460.05L275.057 460.35C275.157 452.95 276.657 446.8 279.557 441.9C282.557 436.9 286.657 433.15 291.857 430.65C297.057 428.15 303.057 426.9 309.857 426.9C317.557 426.9 324.207 428.45 329.807 431.55C335.507 434.55 339.907 438.8 343.007 444.3C346.107 449.8 347.657 456.35 347.657 463.95C347.657 472.15 345.707 479.3 341.807 485.4C338.007 491.4 332.707 496.05 325.907 499.35C319.107 502.65 311.257 504.3 302.357 504.3ZM301.457 481.2C305.457 481.2 308.857 480.5 311.657 479.1C314.557 477.7 316.757 475.75 318.257 473.25C319.857 470.75 320.657 467.85 320.657 464.55C320.657 461.15 319.907 458.25 318.407 455.85C316.907 453.35 314.757 451.4 311.957 450C309.157 448.6 305.807 447.9 301.907 447.9C298.407 447.9 295.157 448.5 292.157 449.7C289.157 450.9 286.757 452.75 284.957 455.25C283.157 457.65 282.257 460.75 282.257 464.55C282.257 467.85 283.007 470.75 284.507 473.25C286.007 475.75 288.157 477.7 290.957 479.1C293.857 480.5 297.357 481.2 301.457 481.2Z" fill="#F2F2F2"/>
</g>
<rect x="3.5" y="3.5" width="593" height="893" rx="26.5" stroke="#161616" stroke-width="7"/>
<defs>
<clipPath id="clip0_204_357">
<rect width="600" height="900" rx="30" fill="white"/>
</clipPath>
</defs>
</svg>
