<svg width="600" height="900" viewBox="0 0 600 900" fill="none" xmlns="http://www.w3.org/2000/svg">
<g clip-path="url(#clip0_204_405)">
<rect width="600" height="900" rx="30" fill="white"/>
<path d="M497.392 232.575C534.132 265.874 546.167 320.233 535.061 381.931C523.965 443.571 489.82 511.967 435.096 572.348C380.372 632.728 315.652 673.415 255.397 690.501C195.085 707.603 139.808 700.956 103.068 667.658C66.3277 634.359 54.2927 580 65.3989 518.302C76.4949 456.662 110.64 388.265 165.364 327.884C220.088 267.504 284.807 226.818 345.063 209.732C405.374 192.63 460.652 199.277 497.392 232.575Z" stroke="#161616" stroke-width="7"/>
<g clip-path="url(#clip1_204_405)">
<path d="M275 416.667L274.025 416.725C271.998 416.964 270.129 417.938 268.773 419.463C267.416 420.989 266.667 422.959 266.667 425V441.658L245.117 441.667C241.821 441.667 238.599 442.645 235.859 444.476C233.119 446.308 230.983 448.911 229.722 451.956C228.461 455.001 228.131 458.351 228.774 461.584C229.416 464.816 231.003 467.786 233.333 470.116L288.217 525C291.342 528.124 295.581 529.88 300 529.88C304.419 529.88 308.658 528.124 311.783 525L366.667 470.116C368.999 467.786 370.587 464.816 371.231 461.582C371.875 458.348 371.545 454.996 370.283 451.95L369.717 450.742C368.319 448.01 366.195 445.717 363.577 444.116C360.96 442.515 357.952 441.667 354.883 441.667L333.333 441.658V425C333.333 422.79 332.455 420.67 330.893 419.107C329.33 417.544 327.21 416.667 325 416.667H275Z" fill="#161616"/>
<path d="M325 366.667C327.124 366.669 329.167 367.482 330.711 368.94C332.256 370.398 333.185 372.391 333.31 374.511C333.434 376.632 332.744 378.72 331.381 380.348C330.018 381.977 328.084 383.024 325.975 383.275L325 383.333H275C272.876 383.331 270.833 382.518 269.288 381.059C267.744 379.601 266.815 377.609 266.69 375.488C266.566 373.368 267.256 371.28 268.619 369.651C269.982 368.022 271.916 366.976 274.025 366.725L275 366.667H325Z" fill="#161616"/>
<path d="M325 391.667C327.124 391.669 329.167 392.482 330.711 393.94C332.256 395.398 333.185 397.391 333.31 399.511C333.434 401.632 332.744 403.72 331.381 405.348C330.018 406.977 328.084 408.024 325.975 408.275L325 408.333H275C272.876 408.331 270.833 407.518 269.288 406.059C267.744 404.601 266.815 402.609 266.69 400.488C266.566 398.368 267.256 396.28 268.619 394.651C269.982 393.022 271.916 391.976 274.025 391.725L275 391.667H325Z" fill="#161616"/>
</g>
<g clip-path="url(#clip2_204_405)">
<path d="M102.5 820H117.442C118.266 820 119.071 820.245 119.756 820.702C120.441 821.16 120.975 821.811 121.29 822.572C121.606 823.334 121.688 824.171 121.527 824.979C121.367 825.787 120.97 826.53 120.388 827.113L92.9459 854.554C92.1645 855.335 91.1049 855.774 90 855.774C88.8952 855.774 87.8356 855.335 87.0542 854.554L59.6125 827.113C59.03 826.53 58.6333 825.787 58.4726 824.979C58.3119 824.171 58.3944 823.334 58.7097 822.572C59.025 821.811 59.5589 821.16 60.2439 820.702C60.929 820.245 61.7344 820 62.5584 820H77.5V807.5H102.5V820Z" stroke="#161616" stroke-width="7" stroke-linecap="round" stroke-linejoin="round"/>
<path d="M102.5 782.5H77.5" stroke="#161616" stroke-width="7" stroke-linecap="round" stroke-linejoin="round"/>
<path d="M102.5 795H77.5" stroke="#161616" stroke-width="7" stroke-linecap="round" stroke-linejoin="round"/>
</g>
<g clip-path="url(#clip3_204_405)">
<path d="M497.5 90.0002H482.558C481.734 90 480.929 89.7555 480.244 89.2977C479.559 88.8398 479.025 88.1892 478.71 87.4279C478.394 86.6667 478.312 85.829 478.473 85.0209C478.633 84.2128 479.03 83.4704 479.613 82.8877L507.054 55.446C507.836 54.6649 508.895 54.2261 510 54.2261C511.105 54.2261 512.164 54.6649 512.946 55.446L540.388 82.8877C540.97 83.4704 541.367 84.2128 541.527 85.0209C541.688 85.829 541.606 86.6667 541.29 87.4279C540.975 88.1892 540.441 88.8398 539.756 89.2977C539.071 89.7555 538.266 90 537.442 90.0002H522.5V102.5H497.5V90.0002Z" stroke="#161616" stroke-width="7" stroke-linecap="round" stroke-linejoin="round"/>
<path d="M497.5 127.5H522.5" stroke="#161616" stroke-width="7" stroke-linecap="round" stroke-linejoin="round"/>
<path d="M497.5 115H522.5" stroke="#161616" stroke-width="7" stroke-linecap="round" stroke-linejoin="round"/>
</g>
</g>
<rect x="3.5" y="3.5" width="593" height="893" rx="26.5" stroke="#161616" stroke-width="7"/>
<defs>
<clipPath id="clip0_204_405">
<rect width="600" height="900" rx="30" fill="white"/>
</clipPath>
<clipPath id="clip1_204_405">
<rect width="200" height="200" fill="white" transform="translate(200 350)"/>
</clipPath>
<clipPath id="clip2_204_405">
<rect width="100" height="100" fill="white" transform="translate(40 770)"/>
</clipPath>
<clipPath id="clip3_204_405">
<rect width="100" height="100" fill="white" transform="translate(460 40)"/>
</clipPath>
</defs>
</svg>
