<svg width="600" height="900" viewBox="0 0 600 900" fill="none" xmlns="http://www.w3.org/2000/svg">
<g clip-path="url(#clip0_202_14)">
<rect width="600" height="900" rx="30" fill="white"/>
<path d="M564.983 157.405C614.59 202.365 630.703 275.633 615.79 358.476C600.888 441.261 555.053 533.039 481.654 614.025C408.255 695.01 321.412 749.624 240.487 772.571C159.505 795.534 85.0105 786.682 35.4035 741.723C-14.2034 696.763 -30.3169 623.494 -15.4043 540.651C-0.501955 457.866 45.3344 366.088 118.733 285.102C192.132 204.117 278.974 149.503 359.899 126.556C440.88 103.593 515.376 112.445 564.983 157.405Z" stroke="#161616" stroke-width="7"/>
<path d="M188.529 503.7C179.129 503.7 171.829 500.65 166.629 494.55C161.529 488.35 158.979 478.9 158.979 466.2V418.2H186.279V466.95C186.279 470.65 187.379 473.65 189.579 475.95C191.779 478.25 194.729 479.4 198.429 479.4C202.129 479.4 205.129 478.25 207.429 475.95C209.729 473.65 210.879 470.55 210.879 466.65V418.2H238.179V501H216.579V466.2H218.079C218.079 474.7 216.979 481.75 214.779 487.35C212.679 492.85 209.529 496.95 205.329 499.65C201.129 502.35 195.929 503.7 189.729 503.7H188.529ZM258.337 501V418.2H279.938V453.75H278.738C278.738 445.15 279.838 438.05 282.038 432.45C284.238 426.75 287.488 422.5 291.788 419.7C296.188 416.9 301.488 415.5 307.688 415.5H308.888C318.288 415.5 325.538 418.65 330.638 424.95C335.838 431.15 338.438 440.7 338.438 453.6V501H311.138V452.85C311.138 449.05 309.988 445.95 307.688 443.55C305.488 441.05 302.438 439.8 298.538 439.8C294.638 439.8 291.488 441.05 289.088 443.55C286.788 445.95 285.638 449.15 285.638 453.15V501H258.337ZM398.025 504C390.725 504 384.225 502.9 378.525 500.7C372.825 498.5 367.975 495.45 363.975 491.55C360.075 487.65 357.075 483.15 354.975 478.05C352.975 472.95 351.975 467.5 351.975 461.7V458.1C351.975 452.1 353.025 446.5 355.125 441.3C357.325 436.1 360.425 431.55 364.425 427.65C368.425 423.75 373.275 420.7 378.975 418.5C384.675 416.3 391.025 415.2 398.025 415.2C405.125 415.2 411.475 416.3 417.075 418.5C422.775 420.7 427.625 423.75 431.625 427.65C435.625 431.55 438.675 436.1 440.775 441.3C442.975 446.5 444.075 452.1 444.075 458.1V461.7C444.075 467.5 443.025 472.95 440.925 478.05C438.925 483.15 435.925 487.65 431.925 491.55C428.025 495.45 423.225 498.5 417.525 500.7C411.825 502.9 405.325 504 398.025 504ZM398.025 481.2C402.225 481.2 405.675 480.3 408.375 478.5C411.175 476.7 413.275 474.2 414.675 471C416.075 467.7 416.775 464 416.775 459.9C416.775 455.6 416.025 451.85 414.525 448.65C413.125 445.35 411.025 442.75 408.225 440.85C405.425 438.95 402.025 438 398.025 438C394.025 438 390.625 438.95 387.825 440.85C385.025 442.75 382.875 445.35 381.375 448.65C379.975 451.85 379.275 455.6 379.275 459.9C379.275 464 379.975 467.7 381.375 471C382.775 474.2 384.875 476.7 387.675 478.5C390.475 480.3 393.925 481.2 398.025 481.2Z" fill="#161616"/>
</g>
<rect x="3.5" y="3.5" width="593" height="893" rx="26.5" stroke="#161616" stroke-width="7"/>
<defs>
<clipPath id="clip0_202_14">
<rect width="600" height="900" rx="30" fill="white"/>
</clipPath>
</defs>
</svg>
