<svg width="600" height="900" viewBox="0 0 600 900" fill="none" xmlns="http://www.w3.org/2000/svg">
<g clip-path="url(#clip0_199_64)">
<rect width="600" height="900" rx="30" fill="#F2F2F2"/>
<path d="M497.392 232.575C534.132 265.874 546.167 320.233 535.061 381.931C523.965 443.571 489.82 511.967 435.096 572.348C380.372 632.728 315.652 673.415 255.397 690.501C195.085 707.603 139.808 700.956 103.068 667.658C66.3277 634.359 54.2927 580 65.3989 518.302C76.4949 456.662 110.64 388.265 165.364 327.884C220.088 267.504 284.807 226.818 345.063 209.732C405.374 192.63 460.652 199.277 497.392 232.575Z" stroke="#161616" stroke-width="7"/>
<path d="M488.922 101.84V66H500.262V101.84H488.922ZM476.742 89.1V78.74H512.442V89.1H476.742ZM519.278 108V96.8C519.278 94.56 519.651 92.6 520.398 90.92C521.191 89.1933 522.405 87.6767 524.038 86.37C525.718 85.0633 527.888 83.85 530.548 82.73L538.318 79.44C540.325 78.6 541.771 77.5967 542.658 76.43C543.591 75.2633 544.058 73.7933 544.058 72.02C544.058 70.3867 543.498 69.01 542.378 67.89C541.305 66.7233 539.718 66.14 537.618 66.14C535.471 66.14 533.861 66.7467 532.788 67.96C531.715 69.1267 531.178 70.7133 531.178 72.72H518.578C518.578 69.36 519.301 66.3733 520.748 63.76C522.195 61.1467 524.318 59.0933 527.118 57.6C529.965 56.1067 533.465 55.36 537.618 55.36C541.725 55.36 545.178 56.0833 547.978 57.53C550.825 58.93 552.971 60.8667 554.418 63.34C555.911 65.7667 556.658 68.52 556.658 71.6V72.44C556.658 76.4067 555.585 79.6733 553.438 82.24C551.291 84.8067 547.838 87.1167 543.078 89.17L535.308 92.46C534.188 92.9267 533.348 93.44 532.788 94C532.275 94.56 532.018 95.3067 532.018 96.24V98.76L529.008 96.8H556.518V108H519.278Z" fill="#161616"/>
<path d="M55.26 833.84V798H66.6V833.84H55.26ZM43.08 821.1V810.74H78.78V821.1H43.08ZM85.6159 840V828.8C85.6159 826.56 85.9893 824.6 86.7359 822.92C87.5293 821.193 88.7426 819.677 90.3759 818.37C92.0559 817.063 94.2259 815.85 96.8859 814.73L104.656 811.44C106.663 810.6 108.109 809.597 108.996 808.43C109.929 807.263 110.396 805.793 110.396 804.02C110.396 802.387 109.836 801.01 108.716 799.89C107.643 798.723 106.056 798.14 103.956 798.14C101.809 798.14 100.199 798.747 99.1259 799.96C98.0526 801.127 97.5159 802.713 97.5159 804.72H84.9159C84.9159 801.36 85.6393 798.373 87.0859 795.76C88.5326 793.147 90.6559 791.093 93.4559 789.6C96.3026 788.107 99.8026 787.36 103.956 787.36C108.063 787.36 111.516 788.083 114.316 789.53C117.163 790.93 119.309 792.867 120.756 795.34C122.249 797.767 122.996 800.52 122.996 803.6V804.44C122.996 808.407 121.923 811.673 119.776 814.24C117.629 816.807 114.176 819.117 109.416 821.17L101.646 824.46C100.526 824.927 99.6859 825.44 99.1259 826C98.6126 826.56 98.3559 827.307 98.3559 828.24V830.76L95.3459 828.8H122.856V840H85.6159Z" fill="#161616"/>
<rect x="180" y="352.541" width="159.609" height="216.042" rx="20" transform="rotate(-15.4578 180 352.541)" fill="#282828"/>
<rect x="265.678" y="342" width="159.609" height="216.042" rx="20" transform="rotate(13.8394 265.678 342)" fill="#161616"/>
</g>
<rect x="3.5" y="3.5" width="593" height="893" rx="26.5" stroke="#161616" stroke-width="7"/>
<defs>
<clipPath id="clip0_199_64">
<rect width="600" height="900" rx="30" fill="#F2F2F2"/>
</clipPath>
</defs>
</svg>
