<svg width="600" height="900" viewBox="0 0 600 900" fill="none" xmlns="http://www.w3.org/2000/svg">
<g clip-path="url(#clip0_199_3)">
<rect width="600" height="900" rx="30" fill="white"/>
<path d="M497.392 232.575C534.132 265.874 546.167 320.233 535.061 381.931C523.965 443.571 489.82 511.967 435.096 572.348C380.372 632.728 315.652 673.415 255.397 690.501C195.085 707.603 139.808 700.956 103.068 667.658C66.3277 634.359 54.2927 580 65.3989 518.302C76.4949 456.662 110.64 388.265 165.364 327.884C220.088 267.504 284.807 226.818 345.063 209.732C405.374 192.63 460.652 199.277 497.392 232.575Z" stroke="#161616" stroke-width="7"/>
<rect x="486" y="40" width="74" height="88" rx="20" fill="#161616"/>
<path d="M523.151 109.4C518.998 109.4 515.451 108.747 512.511 107.44C509.571 106.087 507.168 104.267 505.301 101.98C503.435 99.6467 502.058 96.9867 501.171 94C500.285 90.9667 499.841 87.7933 499.841 84.48V80.42C499.841 75.7533 500.681 71.53 502.361 67.75C504.041 63.97 506.608 60.96 510.061 58.72C513.515 56.48 517.878 55.36 523.151 55.36C528.425 55.36 532.765 56.48 536.171 58.72C539.625 60.96 542.191 63.97 543.871 67.75C545.551 71.53 546.391 75.7533 546.391 80.42V84.48C546.391 87.7933 545.948 90.9667 545.061 94C544.175 96.9867 542.798 99.6467 540.931 101.98C539.111 104.267 536.731 106.087 533.791 107.44C530.851 108.747 527.305 109.4 523.151 109.4ZM523.151 97.36C526.605 97.36 529.171 96.1467 530.851 93.72C532.531 91.2933 533.371 87.56 533.371 82.52C533.371 77.1533 532.508 73.3033 530.781 70.97C529.055 68.59 526.511 67.4 523.151 67.4C519.745 67.4 517.178 68.59 515.451 70.97C513.725 73.3033 512.861 77.1067 512.861 82.38C512.861 87.4667 513.701 91.2467 515.381 93.72C517.108 96.1467 519.698 97.36 523.151 97.36Z" fill="#F2F2F2"/>
<rect x="40" y="772" width="74" height="88" rx="20" fill="#161616"/>
<path d="M77.1512 841.4C72.9978 841.4 69.4512 840.747 66.5112 839.44C63.5712 838.087 61.1678 836.267 59.3012 833.98C57.4345 831.647 56.0578 828.987 55.1712 826C54.2845 822.967 53.8412 819.793 53.8412 816.48V812.42C53.8412 807.753 54.6812 803.53 56.3612 799.75C58.0412 795.97 60.6078 792.96 64.0612 790.72C67.5145 788.48 71.8778 787.36 77.1512 787.36C82.4245 787.36 86.7645 788.48 90.1712 790.72C93.6245 792.96 96.1912 795.97 97.8712 799.75C99.5512 803.53 100.391 807.753 100.391 812.42V816.48C100.391 819.793 99.9478 822.967 99.0612 826C98.1745 828.987 96.7978 831.647 94.9312 833.98C93.1112 836.267 90.7312 838.087 87.7912 839.44C84.8512 840.747 81.3045 841.4 77.1512 841.4ZM77.1512 829.36C80.6045 829.36 83.1712 828.147 84.8512 825.72C86.5312 823.293 87.3712 819.56 87.3712 814.52C87.3712 809.153 86.5078 805.303 84.7812 802.97C83.0545 800.59 80.5112 799.4 77.1512 799.4C73.7445 799.4 71.1778 800.59 69.4512 802.97C67.7245 805.303 66.8612 809.107 66.8612 814.38C66.8612 819.467 67.7012 823.247 69.3812 825.72C71.1078 828.147 73.6978 829.36 77.1512 829.36Z" fill="#F2F2F2"/>
<rect x="192" y="355" width="216" height="189" rx="94.5" fill="#161616"/>
<path d="M300.467 504C291.567 504 283.967 502.6 277.667 499.8C271.367 496.9 266.217 493 262.217 488.1C258.217 483.1 255.267 477.4 253.367 471C251.467 464.5 250.517 457.7 250.517 450.6V441.9C250.517 431.9 252.317 422.85 255.917 414.75C259.517 406.65 265.017 400.2 272.417 395.4C279.817 390.6 289.167 388.2 300.467 388.2C311.767 388.2 321.067 390.6 328.367 395.4C335.767 400.2 341.267 406.65 344.867 414.75C348.467 422.85 350.267 431.9 350.267 441.9V450.6C350.267 457.7 349.317 464.5 347.417 471C345.517 477.4 342.567 483.1 338.567 488.1C334.667 493 329.567 496.9 323.267 499.8C316.967 502.6 309.367 504 300.467 504ZM300.467 478.2C307.867 478.2 313.367 475.6 316.967 470.4C320.567 465.2 322.367 457.2 322.367 446.4C322.367 434.9 320.517 426.65 316.817 421.65C313.117 416.55 307.667 414 300.467 414C293.167 414 287.667 416.55 283.967 421.65C280.267 426.65 278.417 434.8 278.417 446.1C278.417 457 280.217 465.1 283.817 470.4C287.517 475.6 293.067 478.2 300.467 478.2Z" fill="#F2F2F2"/>
</g>
<rect x="3.5" y="3.5" width="593" height="893" rx="26.5" stroke="#161616" stroke-width="7"/>
<defs>
<clipPath id="clip0_199_3">
<rect width="600" height="900" rx="30" fill="white"/>
</clipPath>
</defs>
</svg>
