<svg width="600" height="900" viewBox="0 0 600 900" fill="none" xmlns="http://www.w3.org/2000/svg">
<g clip-path="url(#clip0_204_297)">
<rect width="600" height="900" rx="30" fill="#F2F2F2"/>
<path d="M497.392 232.575C534.132 265.874 546.167 320.233 535.061 381.931C523.965 443.571 489.82 511.967 435.096 572.348C380.372 632.728 315.652 673.415 255.397 690.501C195.085 707.603 139.808 700.956 103.068 667.658C66.3277 634.359 54.2927 580 65.3989 518.302C76.4949 456.662 110.64 388.265 165.364 327.884C220.088 267.504 284.807 226.818 345.063 209.732C405.374 192.63 460.652 199.277 497.392 232.575Z" stroke="#161616" stroke-width="7"/>
<rect x="509" y="40" width="51" height="88" rx="20" fill="#161616"/>
<path d="M531.542 108V65.86L534.622 68.24H522.022V56.9H544.562V108H531.542Z" fill="#F2F2F2"/>
<rect x="40" y="772" width="51" height="88" rx="20" fill="#161616"/>
<path d="M62.5419 840V797.86L65.6219 800.24H53.0219V788.9H75.5619V840H62.5419Z" fill="#F2F2F2"/>
<rect x="217.5" y="355" width="165" height="189" rx="82.5" fill="#161616"/>
<path d="M292.947 501V410.7L299.547 415.8H272.547V391.5H320.847V501H292.947Z" fill="#F2F2F2"/>
</g>
<rect x="3.5" y="3.5" width="593" height="893" rx="26.5" stroke="#161616" stroke-width="7"/>
<defs>
<clipPath id="clip0_204_297">
<rect width="600" height="900" rx="30" fill="#F2F2F2"/>
</clipPath>
</defs>
</svg>
