<svg width="600" height="900" viewBox="0 0 600 900" fill="none" xmlns="http://www.w3.org/2000/svg">
<g clip-path="url(#clip0_204_309)">
<rect width="600" height="900" rx="30" fill="#F2F2F2"/>
<path d="M497.392 232.575C534.132 265.874 546.167 320.233 535.061 381.931C523.965 443.571 489.82 511.967 435.096 572.348C380.372 632.728 315.652 673.415 255.397 690.501C195.085 707.603 139.808 700.956 103.068 667.658C66.3277 634.359 54.2927 580 65.3989 518.302C76.4949 456.662 110.64 388.265 165.364 327.884C220.088 267.504 284.807 226.818 345.063 209.732C405.374 192.63 460.652 199.277 497.392 232.575Z" stroke="#161616" stroke-width="7"/>
<rect x="495" y="40" width="65" height="88" rx="20" fill="#161616"/>
<path d="M509.278 108V96.8C509.278 94.56 509.651 92.6 510.398 90.92C511.191 89.1933 512.405 87.6767 514.038 86.37C515.718 85.0633 517.888 83.85 520.548 82.73L528.318 79.44C530.325 78.6 531.771 77.5967 532.658 76.43C533.591 75.2633 534.058 73.7933 534.058 72.02C534.058 70.3867 533.498 69.01 532.378 67.89C531.305 66.7233 529.718 66.14 527.618 66.14C525.471 66.14 523.861 66.7467 522.788 67.96C521.715 69.1267 521.178 70.7133 521.178 72.72H508.578C508.578 69.36 509.301 66.3733 510.748 63.76C512.195 61.1467 514.318 59.0933 517.118 57.6C519.965 56.1067 523.465 55.36 527.618 55.36C531.725 55.36 535.178 56.0833 537.978 57.53C540.825 58.93 542.971 60.8667 544.418 63.34C545.911 65.7667 546.658 68.52 546.658 71.6V72.44C546.658 76.4067 545.585 79.6733 543.438 82.24C541.291 84.8067 537.838 87.1167 533.078 89.17L525.308 92.46C524.188 92.9267 523.348 93.44 522.788 94C522.275 94.56 522.018 95.3067 522.018 96.24V98.76L519.008 96.8H546.518V108H509.278Z" fill="#F2F2F2"/>
<rect x="40" y="772" width="65" height="88" rx="20" fill="#161616"/>
<path d="M54.278 840V828.8C54.278 826.56 54.6514 824.6 55.398 822.92C56.1914 821.193 57.4047 819.677 59.038 818.37C60.718 817.063 62.888 815.85 65.548 814.73L73.318 811.44C75.3247 810.6 76.7714 809.597 77.658 808.43C78.5914 807.263 79.058 805.793 79.058 804.02C79.058 802.387 78.498 801.01 77.378 799.89C76.3047 798.723 74.718 798.14 72.618 798.14C70.4714 798.14 68.8614 798.747 67.788 799.96C66.7147 801.127 66.178 802.713 66.178 804.72H53.578C53.578 801.36 54.3014 798.373 55.748 795.76C57.1947 793.147 59.318 791.093 62.118 789.6C64.9647 788.107 68.4647 787.36 72.618 787.36C76.7247 787.36 80.178 788.083 82.978 789.53C85.8247 790.93 87.9714 792.867 89.4181 795.34C90.9114 797.767 91.658 800.52 91.658 803.6V804.44C91.658 808.407 90.5847 811.673 88.4381 814.24C86.2914 816.807 82.838 819.117 78.078 821.17L70.308 824.46C69.188 824.927 68.348 825.44 67.788 826C67.2747 826.56 67.018 827.307 67.018 828.24V830.76L64.008 828.8H91.518V840H54.278Z" fill="#F2F2F2"/>
<rect x="202" y="355" width="196" height="189" rx="94.5" fill="#161616"/>
<path d="M260.739 501V477C260.739 472.2 261.539 468 263.139 464.4C264.839 460.7 267.439 457.45 270.939 454.65C274.539 451.85 279.189 449.25 284.889 446.85L301.539 439.8C305.839 438 308.939 435.85 310.839 433.35C312.839 430.85 313.839 427.7 313.839 423.9C313.839 420.4 312.639 417.45 310.239 415.05C307.939 412.55 304.539 411.3 300.039 411.3C295.439 411.3 291.989 412.6 289.689 415.2C287.389 417.7 286.239 421.1 286.239 425.4H259.239C259.239 418.2 260.789 411.8 263.889 406.2C266.989 400.6 271.539 396.2 277.539 393C283.639 389.8 291.139 388.2 300.039 388.2C308.839 388.2 316.239 389.75 322.239 392.85C328.339 395.85 332.939 400 336.039 405.3C339.239 410.5 340.839 416.4 340.839 423V424.8C340.839 433.3 338.539 440.3 333.939 445.8C329.339 451.3 321.939 456.25 311.739 460.65L295.089 467.7C292.689 468.7 290.889 469.8 289.689 471C288.589 472.2 288.039 473.8 288.039 475.8V481.2L281.589 477H340.539V501H260.739Z" fill="#F2F2F2"/>
</g>
<rect x="3.5" y="3.5" width="593" height="893" rx="26.5" stroke="#161616" stroke-width="7"/>
<defs>
<clipPath id="clip0_204_309">
<rect width="600" height="900" rx="30" fill="#F2F2F2"/>
</clipPath>
</defs>
</svg>
