<svg width="600" height="900" viewBox="0 0 600 900" fill="none" xmlns="http://www.w3.org/2000/svg">
<g clip-path="url(#clip0_204_321)">
<rect width="600" height="900" rx="30" fill="#F2F2F2"/>
<path d="M497.392 232.575C534.132 265.874 546.167 320.233 535.061 381.931C523.965 443.571 489.82 511.967 435.096 572.348C380.372 632.728 315.652 673.415 255.397 690.501C195.085 707.603 139.808 700.956 103.068 667.658C66.3277 634.359 54.2927 580 65.3989 518.302C76.4949 456.662 110.64 388.265 165.364 327.884C220.088 267.504 284.807 226.818 345.063 209.732C405.374 192.63 460.652 199.277 497.392 232.575Z" stroke="#161616" stroke-width="7"/>
<rect x="495" y="40" width="65" height="88" rx="20" fill="#161616"/>
<path d="M527.271 109.4C523.258 109.4 519.758 108.677 516.771 107.23C513.785 105.737 511.475 103.73 509.841 101.21C508.255 98.6433 507.461 95.7267 507.461 92.46H520.061C520.061 94.28 520.691 95.7733 521.951 96.94C523.211 98.06 524.985 98.62 527.271 98.62C528.811 98.62 530.118 98.34 531.191 97.78C532.265 97.1733 533.081 96.38 533.641 95.4C534.201 94.3733 534.481 93.23 534.481 91.97C534.481 90.0567 533.851 88.47 532.591 87.21C531.378 85.95 529.605 85.32 527.271 85.32C525.918 85.32 524.705 85.53 523.631 85.95C522.605 86.37 521.718 86.9067 520.971 87.56L515.161 77.9L529.301 69.22L528.671 68.1H509.631V56.9H545.191V68.03L526.781 79.23L520.901 77.06C521.881 76.78 522.908 76.57 523.981 76.43C525.101 76.29 526.245 76.22 527.411 76.22C531.425 76.22 534.901 76.85 537.841 78.11C540.781 79.37 543.045 81.19 544.631 83.57C546.265 85.9033 547.081 88.7033 547.081 91.97V92.81C547.081 96.03 546.265 98.9 544.631 101.42C543.045 103.893 540.758 105.853 537.771 107.3C534.831 108.7 531.331 109.4 527.271 109.4Z" fill="#F2F2F2"/>
<rect x="40" y="772" width="65" height="88" rx="20" fill="#161616"/>
<path d="M72.2713 841.4C68.258 841.4 64.758 840.677 61.7713 839.23C58.7847 837.737 56.4747 835.73 54.8413 833.21C53.2547 830.643 52.4613 827.727 52.4613 824.46H65.0613C65.0613 826.28 65.6913 827.773 66.9513 828.94C68.2113 830.06 69.9847 830.62 72.2713 830.62C73.8113 830.62 75.118 830.34 76.1913 829.78C77.2647 829.173 78.0813 828.38 78.6413 827.4C79.2013 826.373 79.4813 825.23 79.4813 823.97C79.4813 822.057 78.8513 820.47 77.5913 819.21C76.378 817.95 74.6047 817.32 72.2713 817.32C70.918 817.32 69.7047 817.53 68.6313 817.95C67.6047 818.37 66.718 818.907 65.9713 819.56L60.1613 809.9L74.3013 801.22L73.6713 800.1H54.6313V788.9H90.1913V800.03L71.7813 811.23L65.9013 809.06C66.8813 808.78 67.908 808.57 68.9813 808.43C70.1013 808.29 71.2447 808.22 72.4113 808.22C76.4247 808.22 79.9013 808.85 82.8413 810.11C85.7813 811.37 88.0447 813.19 89.6313 815.57C91.2647 817.903 92.0813 820.703 92.0813 823.97V824.81C92.0813 828.03 91.2647 830.9 89.6313 833.42C88.0447 835.893 85.758 837.853 82.7713 839.3C79.8313 840.7 76.3313 841.4 72.2713 841.4Z" fill="#F2F2F2"/>
<rect x="202" y="355" width="196" height="189" rx="94.5" fill="#161616"/>
<path d="M299.296 504C290.696 504 283.196 502.45 276.796 499.35C270.396 496.15 265.446 491.85 261.946 486.45C258.546 480.95 256.846 474.7 256.846 467.7H283.846C283.846 471.6 285.196 474.8 287.896 477.3C290.596 479.7 294.396 480.9 299.296 480.9C302.596 480.9 305.396 480.3 307.696 479.1C309.996 477.8 311.746 476.1 312.946 474C314.146 471.8 314.746 469.35 314.746 466.65C314.746 462.55 313.396 459.15 310.696 456.45C308.096 453.75 304.296 452.4 299.296 452.4C296.396 452.4 293.796 452.85 291.496 453.75C289.296 454.65 287.396 455.8 285.796 457.2L273.346 436.5L303.646 417.9L302.296 415.5H261.496V391.5H337.696V415.35L298.246 439.35L285.646 434.7C287.746 434.1 289.946 433.65 292.246 433.35C294.646 433.05 297.096 432.9 299.596 432.9C308.196 432.9 315.646 434.25 321.946 436.95C328.246 439.65 333.096 443.55 336.496 448.65C339.996 453.65 341.746 459.65 341.746 466.65V468.45C341.746 475.35 339.996 481.5 336.496 486.9C333.096 492.2 328.196 496.4 321.796 499.5C315.496 502.5 307.996 504 299.296 504Z" fill="#F2F2F2"/>
</g>
<rect x="3.5" y="3.5" width="593" height="893" rx="26.5" stroke="#161616" stroke-width="7"/>
<defs>
<clipPath id="clip0_204_321">
<rect width="600" height="900" rx="30" fill="#F2F2F2"/>
</clipPath>
</defs>
</svg>
