<svg width="600" height="900" viewBox="0 0 600 900" fill="none" xmlns="http://www.w3.org/2000/svg">
<g clip-path="url(#clip0_204_333)">
<rect width="600" height="900" rx="30" fill="white"/>
<path d="M497.392 232.575C534.132 265.874 546.167 320.233 535.061 381.931C523.965 443.571 489.82 511.967 435.096 572.348C380.372 632.728 315.652 673.415 255.397 690.501C195.085 707.603 139.808 700.956 103.068 667.658C66.3277 634.359 54.2927 580 65.3989 518.302C76.4949 456.662 110.64 388.265 165.364 327.884C220.088 267.504 284.807 226.818 345.063 209.732C405.374 192.63 460.652 199.277 497.392 232.575Z" stroke="#161616" stroke-width="7"/>
<rect x="492" y="40" width="68" height="88" rx="20" fill="#161616"/>
<path d="M504.245 98.97V85.74L523.005 55.36L533.295 61.87L517.825 87.07L518.875 88.61H548.625V98.97H504.245ZM531.055 108V70.97H543.095V108H531.055Z" fill="#F2F2F2"/>
<rect x="40" y="772" width="68" height="88" rx="20" fill="#161616"/>
<path d="M52.2452 830.97V817.74L71.0052 787.36L81.2952 793.87L65.8252 819.07L66.8752 820.61H96.6252V830.97H52.2452ZM79.0552 840V802.97H91.0952V840H79.0552Z" fill="#F2F2F2"/>
<rect x="198.5" y="355" width="203" height="189" rx="94.5" fill="#161616"/>
<path d="M253.454 481.65V453.3L293.654 388.2L315.704 402.15L282.554 456.15L284.804 459.45H348.554V481.65H253.454ZM310.904 501V421.65H336.704V501H310.904Z" fill="#F2F2F2"/>
</g>
<rect x="3.5" y="3.5" width="593" height="893" rx="26.5" stroke="#161616" stroke-width="7"/>
<defs>
<clipPath id="clip0_204_333">
<rect width="600" height="900" rx="30" fill="white"/>
</clipPath>
</defs>
</svg>
