<svg width="600" height="900" viewBox="0 0 600 900" fill="none" xmlns="http://www.w3.org/2000/svg">
<g clip-path="url(#clip0_204_369)">
<rect width="600" height="900" rx="30" fill="#F2F2F2"/>
<path d="M497.392 232.575C534.132 265.874 546.167 320.233 535.061 381.931C523.965 443.571 489.82 511.967 435.096 572.348C380.372 632.728 315.652 673.415 255.397 690.501C195.085 707.603 139.808 700.956 103.068 667.658C66.3277 634.359 54.2927 580 65.3989 518.302C76.4949 456.662 110.64 388.265 165.364 327.884C220.088 267.504 284.807 226.818 345.063 209.732C405.374 192.63 460.652 199.277 497.392 232.575Z" stroke="#161616" stroke-width="7"/>
<rect x="496" y="40" width="64" height="88" rx="20" fill="#161616"/>
<path d="M516.739 108L533.399 68.73L532.489 67.54H508.689V56.9H548.869V63.9L530.599 108H516.739ZM508.689 75.8V56.9H519.189V75.8H508.689Z" fill="#F2F2F2"/>
<rect x="40" y="772" width="64" height="88" rx="20" fill="#161616"/>
<path d="M60.7385 840L77.3985 800.73L76.4885 799.54H52.6885V788.9H92.8685V795.9L74.5985 840H60.7385ZM52.6885 807.8V788.9H63.1885V807.8H52.6885Z" fill="#F2F2F2"/>
<rect x="203.5" y="355" width="193" height="189" rx="94.5" fill="#161616"/>
<path d="M275.225 501L310.925 416.85L308.975 414.3H257.975V391.5H344.075V406.5L304.925 501H275.225ZM257.975 432V391.5H280.475V432H257.975Z" fill="#F2F2F2"/>
</g>
<rect x="3.5" y="3.5" width="593" height="893" rx="26.5" stroke="#161616" stroke-width="7"/>
<defs>
<clipPath id="clip0_204_369">
<rect width="600" height="900" rx="30" fill="#F2F2F2"/>
</clipPath>
</defs>
</svg>
