<svg width="600" height="900" viewBox="0 0 600 900" fill="none" xmlns="http://www.w3.org/2000/svg">
<g clip-path="url(#clip0_204_381)">
<rect width="600" height="900" rx="30" fill="#F2F2F2"/>
<path d="M497.392 232.575C534.132 265.874 546.167 320.233 535.061 381.931C523.965 443.571 489.82 511.967 435.096 572.348C380.372 632.728 315.652 673.415 255.397 690.501C195.085 707.603 139.808 700.956 103.068 667.658C66.3277 634.359 54.2927 580 65.3989 518.302C76.4949 456.662 110.64 388.265 165.364 327.884C220.088 267.504 284.807 226.818 345.063 209.732C405.374 192.63 460.652 199.277 497.392 232.575Z" stroke="#161616" stroke-width="7"/>
<rect x="492" y="40" width="68" height="88" rx="20" fill="#161616"/>
<path d="M526.287 109.54C522.04 109.54 518.33 108.957 515.157 107.79C512.03 106.577 509.604 104.803 507.877 102.47C506.15 100.137 505.287 97.2667 505.287 93.86C505.287 91.6667 505.614 89.7533 506.267 88.12C506.967 86.44 507.924 85.0167 509.137 83.85C510.397 82.6833 511.89 81.7967 513.617 81.19V80.21C512.31 79.65 511.12 78.9033 510.047 77.97C509.02 77.0367 508.204 75.87 507.597 74.47C507.037 73.07 506.757 71.4133 506.757 69.5C506.757 66.28 507.597 63.6433 509.277 61.59C510.957 59.49 513.267 57.9267 516.207 56.9C519.194 55.8733 522.554 55.36 526.287 55.36C530.067 55.36 533.427 55.8733 536.367 56.9C539.307 57.9267 541.617 59.49 543.297 61.59C544.977 63.6433 545.817 66.28 545.817 69.5C545.817 71.4133 545.514 73.07 544.907 74.47C544.347 75.87 543.554 77.0367 542.527 77.97C541.5 78.9033 540.31 79.65 538.957 80.21V81.19C540.684 81.7967 542.177 82.6833 543.437 83.85C544.697 85.0167 545.654 86.44 546.307 88.12C547.007 89.7533 547.357 91.6667 547.357 93.86C547.357 97.2667 546.494 100.137 544.767 102.47C543.04 104.803 540.59 106.577 537.417 107.79C534.29 108.957 530.58 109.54 526.287 109.54ZM526.287 98.9C527.967 98.9 529.437 98.6667 530.697 98.2C531.957 97.6867 532.937 96.94 533.637 95.96C534.384 94.9333 534.757 93.6733 534.757 92.18C534.757 90.6867 534.407 89.45 533.707 88.47C533.007 87.49 532.004 86.7667 530.697 86.3C529.437 85.7867 527.967 85.53 526.287 85.53C524.654 85.53 523.184 85.7867 521.877 86.3C520.617 86.7667 519.637 87.49 518.937 88.47C518.237 89.45 517.887 90.6867 517.887 92.18C517.887 93.6733 518.237 94.9333 518.937 95.96C519.637 96.94 520.617 97.6867 521.877 98.2C523.184 98.6667 524.654 98.9 526.287 98.9ZM526.287 76.01C528.48 76.01 530.184 75.5667 531.397 74.68C532.61 73.7933 533.217 72.5567 533.217 70.97C533.217 69.3367 532.61 68.1 531.397 67.26C530.184 66.42 528.48 66 526.287 66C524.094 66 522.39 66.4433 521.177 67.33C519.964 68.17 519.357 69.3833 519.357 70.97C519.357 72.5567 519.964 73.7933 521.177 74.68C522.437 75.5667 524.14 76.01 526.287 76.01Z" fill="#F2F2F2"/>
<rect x="40" y="772" width="68" height="88" rx="20" fill="#161616"/>
<path d="M74.287 841.54C70.0403 841.54 66.3303 840.957 63.157 839.79C60.0303 838.577 57.6036 836.803 55.877 834.47C54.1503 832.137 53.287 829.267 53.287 825.86C53.287 823.667 53.6136 821.753 54.267 820.12C54.967 818.44 55.9236 817.017 57.137 815.85C58.397 814.683 59.8903 813.797 61.617 813.19V812.21C60.3103 811.65 59.1203 810.903 58.047 809.97C57.0203 809.037 56.2036 807.87 55.597 806.47C55.037 805.07 54.757 803.413 54.757 801.5C54.757 798.28 55.597 795.643 57.277 793.59C58.957 791.49 61.267 789.927 64.207 788.9C67.1936 787.873 70.5536 787.36 74.287 787.36C78.067 787.36 81.427 787.873 84.367 788.9C87.307 789.927 89.617 791.49 91.297 793.59C92.977 795.643 93.817 798.28 93.817 801.5C93.817 803.413 93.5136 805.07 92.907 806.47C92.347 807.87 91.5536 809.037 90.527 809.97C89.5003 810.903 88.3103 811.65 86.957 812.21V813.19C88.6836 813.797 90.177 814.683 91.437 815.85C92.697 817.017 93.6536 818.44 94.307 820.12C95.007 821.753 95.357 823.667 95.357 825.86C95.357 829.267 94.4936 832.137 92.767 834.47C91.0403 836.803 88.5903 838.577 85.417 839.79C82.2903 840.957 78.5803 841.54 74.287 841.54ZM74.287 830.9C75.967 830.9 77.437 830.667 78.697 830.2C79.957 829.687 80.937 828.94 81.637 827.96C82.3836 826.933 82.757 825.673 82.757 824.18C82.757 822.687 82.407 821.45 81.707 820.47C81.007 819.49 80.0036 818.767 78.697 818.3C77.437 817.787 75.967 817.53 74.287 817.53C72.6536 817.53 71.1836 817.787 69.877 818.3C68.617 818.767 67.637 819.49 66.937 820.47C66.237 821.45 65.887 822.687 65.887 824.18C65.887 825.673 66.237 826.933 66.937 827.96C67.637 828.94 68.617 829.687 69.877 830.2C71.1836 830.667 72.6536 830.9 74.287 830.9ZM74.287 808.01C76.4803 808.01 78.1836 807.567 79.397 806.68C80.6103 805.793 81.217 804.557 81.217 802.97C81.217 801.337 80.6103 800.1 79.397 799.26C78.1836 798.42 76.4803 798 74.287 798C72.0936 798 70.3903 798.443 69.177 799.33C67.9636 800.17 67.357 801.383 67.357 802.97C67.357 804.557 67.9636 805.793 69.177 806.68C70.437 807.567 72.1403 808.01 74.287 808.01Z" fill="#F2F2F2"/>
<rect x="199" y="355" width="202" height="189" rx="94.5" fill="#161616"/>
<path d="M300.186 504.3C291.086 504.3 283.136 503.05 276.336 500.55C269.636 497.95 264.436 494.15 260.736 489.15C257.036 484.15 255.186 478 255.186 470.7C255.186 466 255.886 461.9 257.286 458.4C258.786 454.8 260.836 451.75 263.436 449.25C266.136 446.75 269.336 444.85 273.036 443.55V441.45C270.236 440.25 267.686 438.65 265.386 436.65C263.186 434.65 261.436 432.15 260.136 429.15C258.936 426.15 258.336 422.6 258.336 418.5C258.336 411.6 260.136 405.95 263.736 401.55C267.336 397.05 272.286 393.7 278.586 391.5C284.986 389.3 292.186 388.2 300.186 388.2C308.286 388.2 315.486 389.3 321.786 391.5C328.086 393.7 333.036 397.05 336.636 401.55C340.236 405.95 342.036 411.6 342.036 418.5C342.036 422.6 341.386 426.15 340.086 429.15C338.886 432.15 337.186 434.65 334.986 436.65C332.786 438.65 330.236 440.25 327.336 441.45V443.55C331.036 444.85 334.236 446.75 336.936 449.25C339.636 451.75 341.686 454.8 343.086 458.4C344.586 461.9 345.336 466 345.336 470.7C345.336 478 343.486 484.15 339.786 489.15C336.086 494.15 330.836 497.95 324.036 500.55C317.336 503.05 309.386 504.3 300.186 504.3ZM300.186 481.5C303.786 481.5 306.936 481 309.636 480C312.336 478.9 314.436 477.3 315.936 475.2C317.536 473 318.336 470.3 318.336 467.1C318.336 463.9 317.586 461.25 316.086 459.15C314.586 457.05 312.436 455.5 309.636 454.5C306.936 453.4 303.786 452.85 300.186 452.85C296.686 452.85 293.536 453.4 290.736 454.5C288.036 455.5 285.936 457.05 284.436 459.15C282.936 461.25 282.186 463.9 282.186 467.1C282.186 470.3 282.936 473 284.436 475.2C285.936 477.3 288.036 478.9 290.736 480C293.536 481 296.686 481.5 300.186 481.5ZM300.186 432.45C304.886 432.45 308.536 431.5 311.136 429.6C313.736 427.7 315.036 425.05 315.036 421.65C315.036 418.15 313.736 415.5 311.136 413.7C308.536 411.9 304.886 411 300.186 411C295.486 411 291.836 411.95 289.236 413.85C286.636 415.65 285.336 418.25 285.336 421.65C285.336 425.05 286.636 427.7 289.236 429.6C291.936 431.5 295.586 432.45 300.186 432.45Z" fill="#F2F2F2"/>
</g>
<rect x="3.5" y="3.5" width="593" height="893" rx="26.5" stroke="#161616" stroke-width="7"/>
<defs>
<clipPath id="clip0_204_381">
<rect width="600" height="900" rx="30" fill="#F2F2F2"/>
</clipPath>
</defs>
</svg>
