<svg width="600" height="900" viewBox="0 0 600 900" fill="none" xmlns="http://www.w3.org/2000/svg">
<g clip-path="url(#clip0_204_393)">
<rect width="600" height="900" rx="30" fill="#F2F2F2"/>
<path d="M497.392 232.575C534.132 265.874 546.167 320.233 535.061 381.931C523.965 443.571 489.82 511.967 435.096 572.348C380.372 632.728 315.652 673.415 255.397 690.501C195.085 707.603 139.808 700.956 103.068 667.658C66.3277 634.359 54.2927 580 65.3989 518.302C76.4949 456.662 110.64 388.265 165.364 327.884C220.088 267.504 284.807 226.818 345.063 209.732C405.374 192.63 460.652 199.277 497.392 232.575Z" stroke="#161616" stroke-width="7"/>
<rect x="491" y="40" width="69" height="88" rx="20" fill="#161616"/>
<path d="M524.64 55.36C528.42 55.36 531.686 55.99 534.44 57.25C537.24 58.4633 539.526 60.19 541.3 62.43C543.12 64.67 544.45 67.2833 545.29 70.27C546.176 73.21 546.62 76.3833 546.62 79.79V82.59C546.62 91.2233 544.403 97.6867 539.97 101.98C535.536 106.273 528.956 108.42 520.23 108.42C518.503 108.42 516.73 108.373 514.91 108.28C513.09 108.187 511.386 108.047 509.8 107.86V96.94C511.34 97.08 513.066 97.22 514.98 97.36C516.893 97.4533 518.783 97.5 520.65 97.5C524.243 97.5 527.043 96.94 529.05 95.82C531.103 94.7 532.526 92.9967 533.32 90.71C534.16 88.4233 534.58 85.53 534.58 82.03V76.01L537.38 75.87C537.333 79.3233 536.61 82.2167 535.21 84.55C533.856 86.8367 531.966 88.5633 529.54 89.73C527.113 90.8967 524.313 91.48 521.14 91.48C517.546 91.48 514.42 90.78 511.76 89.38C509.146 87.9333 507.116 85.9267 505.67 83.36C504.223 80.7933 503.5 77.7367 503.5 74.19C503.5 70.3633 504.386 67.05 506.16 64.25C507.98 61.4033 510.476 59.21 513.65 57.67C516.823 56.13 520.486 55.36 524.64 55.36ZM525.06 66.14C523.193 66.14 521.583 66.4667 520.23 67.12C518.923 67.7733 517.896 68.6833 517.15 69.85C516.45 71.0167 516.1 72.37 516.1 73.91C516.1 75.4967 516.45 76.8733 517.15 78.04C517.85 79.16 518.853 80.0467 520.16 80.7C521.466 81.3533 523.03 81.68 524.85 81.68C526.483 81.68 528 81.4 529.4 80.84C530.8 80.28 531.92 79.44 532.76 78.32C533.6 77.1533 534.02 75.6833 534.02 73.91C534.02 72.37 533.67 71.0167 532.97 69.85C532.27 68.6833 531.243 67.7733 529.89 67.12C528.583 66.4667 526.973 66.14 525.06 66.14Z" fill="#F2F2F2"/>
<rect x="40" y="772" width="69" height="88" rx="20" fill="#161616"/>
<path d="M73.6398 787.36C77.4198 787.36 80.6864 787.99 83.4398 789.25C86.2398 790.463 88.5264 792.19 90.2998 794.43C92.1198 796.67 93.4498 799.283 94.2898 802.27C95.1764 805.21 95.6198 808.383 95.6198 811.79V814.59C95.6198 823.223 93.4031 829.687 88.9698 833.98C84.5364 838.273 77.9564 840.42 69.2298 840.42C67.5031 840.42 65.7298 840.373 63.9098 840.28C62.0898 840.187 60.3864 840.047 58.7998 839.86V828.94C60.3398 829.08 62.0664 829.22 63.9798 829.36C65.8931 829.453 67.7831 829.5 69.6498 829.5C73.2431 829.5 76.0431 828.94 78.0498 827.82C80.1031 826.7 81.5264 824.997 82.3198 822.71C83.1598 820.423 83.5798 817.53 83.5798 814.03V808.01L86.3798 807.87C86.3331 811.323 85.6098 814.217 84.2098 816.55C82.8564 818.837 80.9664 820.563 78.5398 821.73C76.1131 822.897 73.3131 823.48 70.1398 823.48C66.5464 823.48 63.4198 822.78 60.7598 821.38C58.1464 819.933 56.1164 817.927 54.6698 815.36C53.2231 812.793 52.4998 809.737 52.4998 806.19C52.4998 802.363 53.3864 799.05 55.1598 796.25C56.9798 793.403 59.4764 791.21 62.6498 789.67C65.8231 788.13 69.4864 787.36 73.6398 787.36ZM74.0598 798.14C72.1931 798.14 70.5831 798.467 69.2298 799.12C67.9231 799.773 66.8964 800.683 66.1498 801.85C65.4498 803.017 65.0998 804.37 65.0998 805.91C65.0998 807.497 65.4498 808.873 66.1498 810.04C66.8498 811.16 67.8531 812.047 69.1598 812.7C70.4664 813.353 72.0298 813.68 73.8498 813.68C75.4831 813.68 76.9998 813.4 78.3998 812.84C79.7998 812.28 80.9198 811.44 81.7598 810.32C82.5998 809.153 83.0198 807.683 83.0198 805.91C83.0198 804.37 82.6698 803.017 81.9698 801.85C81.2698 800.683 80.2431 799.773 78.8898 799.12C77.5831 798.467 75.9731 798.14 74.0598 798.14Z" fill="#F2F2F2"/>
<rect x="197.5" y="355" width="205" height="189" rx="94.5" fill="#161616"/>
<path d="M298.157 388.2C306.257 388.2 313.257 389.55 319.157 392.25C325.157 394.85 330.057 398.55 333.857 403.35C337.757 408.15 340.607 413.75 342.407 420.15C344.307 426.45 345.257 433.25 345.257 440.55V446.55C345.257 465.05 340.507 478.9 331.007 488.1C321.507 497.3 307.407 501.9 288.707 501.9C285.007 501.9 281.207 501.8 277.307 501.6C273.407 501.4 269.757 501.1 266.357 500.7V477.3C269.657 477.6 273.357 477.9 277.457 478.2C281.557 478.4 285.607 478.5 289.607 478.5C297.307 478.5 303.307 477.3 307.607 474.9C312.007 472.5 315.057 468.85 316.757 463.95C318.557 459.05 319.457 452.85 319.457 445.35V432.45L325.457 432.15C325.357 439.55 323.807 445.75 320.807 450.75C317.907 455.65 313.857 459.35 308.657 461.85C303.457 464.35 297.457 465.6 290.657 465.6C282.957 465.6 276.257 464.1 270.557 461.1C264.957 458 260.607 453.7 257.507 448.2C254.407 442.7 252.857 436.15 252.857 428.55C252.857 420.35 254.757 413.25 258.557 407.25C262.457 401.15 267.807 396.45 274.607 393.15C281.407 389.85 289.257 388.2 298.157 388.2ZM299.057 411.3C295.057 411.3 291.607 412 288.707 413.4C285.907 414.8 283.707 416.75 282.107 419.25C280.607 421.75 279.857 424.65 279.857 427.95C279.857 431.35 280.607 434.3 282.107 436.8C283.607 439.2 285.757 441.1 288.557 442.5C291.357 443.9 294.707 444.6 298.607 444.6C302.107 444.6 305.357 444 308.357 442.8C311.357 441.6 313.757 439.8 315.557 437.4C317.357 434.9 318.257 431.75 318.257 427.95C318.257 424.65 317.507 421.75 316.007 419.25C314.507 416.75 312.307 414.8 309.407 413.4C306.607 412 303.157 411.3 299.057 411.3Z" fill="#F2F2F2"/>
</g>
<rect x="3.5" y="3.5" width="593" height="893" rx="26.5" stroke="#161616" stroke-width="7"/>
<defs>
<clipPath id="clip0_204_393">
<rect width="600" height="900" rx="30" fill="#F2F2F2"/>
</clipPath>
</defs>
</svg>
