<svg width="600" height="900" viewBox="0 0 600 900" fill="none" xmlns="http://www.w3.org/2000/svg">
<g clip-path="url(#clip0_201_138)">
<rect width="600" height="900" rx="30" fill="#F2F2F2"/>
<path d="M497.392 232.575C534.132 265.874 546.167 320.233 535.061 381.931C523.965 443.571 489.82 511.967 435.096 572.348C380.372 632.728 315.652 673.415 255.397 690.501C195.085 707.603 139.808 700.956 103.068 667.658C66.3277 634.359 54.2927 580 65.3989 518.302C76.4949 456.662 110.64 388.265 165.364 327.884C220.088 267.504 284.807 226.818 345.063 209.732C405.374 192.63 460.652 199.277 497.392 232.575Z" stroke="#161616" stroke-width="7"/>
<g clip-path="url(#clip1_201_138)">
<path d="M465 90C465 95.9095 466.164 101.761 468.425 107.221C470.687 112.68 474.002 117.641 478.18 121.82C482.359 125.998 487.32 129.313 492.779 131.575C498.239 133.836 504.091 135 510 135C515.909 135 521.761 133.836 527.221 131.575C532.68 129.313 537.641 125.998 541.82 121.82C545.998 117.641 549.313 112.68 551.575 107.221C553.836 101.761 555 95.9095 555 90C555 84.0905 553.836 78.2389 551.575 72.7792C549.313 67.3196 545.998 62.3588 541.82 58.1802C537.641 54.0016 532.68 50.6869 527.221 48.4254C521.761 46.164 515.909 45 510 45C504.091 45 498.239 46.164 492.779 48.4254C487.32 50.6869 482.359 54.0016 478.18 58.1802C474.002 62.3588 470.687 67.3196 468.425 72.7792C466.164 78.2389 465 84.0905 465 90Z" stroke="#161616" stroke-width="7" stroke-linecap="round" stroke-linejoin="round"/>
<path d="M541.82 58.1797L478.18 121.82" stroke="#161616" stroke-width="7" stroke-linecap="round" stroke-linejoin="round"/>
</g>
<g clip-path="url(#clip2_201_138)">
<path d="M45 810C45 815.909 46.164 821.761 48.4254 827.221C50.6869 832.68 54.0016 837.641 58.1802 841.82C62.3588 845.998 67.3196 849.313 72.7792 851.575C78.2389 853.836 84.0905 855 90 855C95.9095 855 101.761 853.836 107.221 851.575C112.68 849.313 117.641 845.998 121.82 841.82C125.998 837.641 129.313 832.68 131.575 827.221C133.836 821.761 135 815.909 135 810C135 804.091 133.836 798.239 131.575 792.779C129.313 787.32 125.998 782.359 121.82 778.18C117.641 774.002 112.68 770.687 107.221 768.425C101.761 766.164 95.9095 765 90 765C84.0905 765 78.2389 766.164 72.7792 768.425C67.3196 770.687 62.3588 774.002 58.1802 778.18C54.0016 782.359 50.6869 787.32 48.4254 792.779C46.164 798.239 45 804.091 45 810Z" stroke="#161616" stroke-width="7" stroke-linecap="round" stroke-linejoin="round"/>
<path d="M121.82 778.18L58.1797 841.82" stroke="#161616" stroke-width="7" stroke-linecap="round" stroke-linejoin="round"/>
</g>
<g clip-path="url(#clip3_201_138)">
<path d="M210 450C210 461.819 212.328 473.522 216.851 484.442C221.374 495.361 228.003 505.282 236.36 513.64C244.718 521.997 254.639 528.626 265.558 533.149C276.478 537.672 288.181 540 300 540C311.819 540 323.522 537.672 334.442 533.149C345.361 528.626 355.282 521.997 363.64 513.64C371.997 505.282 378.626 495.361 383.149 484.442C387.672 473.522 390 461.819 390 450C390 438.181 387.672 426.478 383.149 415.558C378.626 404.639 371.997 394.718 363.64 386.36C355.282 378.003 345.361 371.374 334.442 366.851C323.522 362.328 311.819 360 300 360C288.181 360 276.478 362.328 265.558 366.851C254.639 371.374 244.718 378.003 236.36 386.36C228.003 394.718 221.374 404.639 216.851 415.558C212.328 426.478 210 438.181 210 450Z" stroke="#161616" stroke-width="20" stroke-linecap="round" stroke-linejoin="round"/>
<path d="M363.64 386.36L236.36 513.64" stroke="#161616" stroke-width="20" stroke-linecap="round" stroke-linejoin="round"/>
</g>
</g>
<rect x="3.5" y="3.5" width="593" height="893" rx="26.5" stroke="#161616" stroke-width="7"/>
<defs>
<clipPath id="clip0_201_138">
<rect width="600" height="900" rx="30" fill="#F2F2F2"/>
</clipPath>
<clipPath id="clip1_201_138">
<rect width="100" height="100" fill="#F2F2F2" transform="translate(460 40)"/>
</clipPath>
<clipPath id="clip2_201_138">
<rect width="100" height="100" fill="#F2F2F2" transform="translate(40 760)"/>
</clipPath>
<clipPath id="clip3_201_138">
<rect width="200" height="200" fill="#F2F2F2" transform="translate(200 350)"/>
</clipPath>
</defs>
</svg>
