<svg width="600" height="900" viewBox="0 0 600 900" fill="none" xmlns="http://www.w3.org/2000/svg">
<g clip-path="url(#clip0_202_117)">
<rect width="600" height="900" rx="30" fill="#F2F2F2"/>
<path d="M497.392 232.575C534.132 265.874 546.167 320.233 535.061 381.931C523.965 443.571 489.82 511.967 435.096 572.348C380.372 632.728 315.652 673.415 255.397 690.501C195.085 707.603 139.808 700.956 103.068 667.658C66.3277 634.359 54.2927 580 65.3989 518.302C76.4949 456.662 110.64 388.265 165.364 327.884C220.088 267.504 284.807 226.818 345.063 209.732C405.374 192.63 460.652 199.277 497.392 232.575Z" stroke="#161616" stroke-width="7"/>
<g clip-path="url(#clip1_202_117)">
<path d="M344.444 360L388.889 400L344.444 440" stroke="#161616" stroke-width="20" stroke-linecap="round" stroke-linejoin="round"/>
<path d="M277.778 400H388.889" stroke="#161616" stroke-width="20" stroke-linecap="round" stroke-linejoin="round"/>
<path d="M255.556 460L211.111 500L255.556 540" stroke="#161616" stroke-width="20" stroke-linecap="round" stroke-linejoin="round"/>
<path d="M211.111 500H311.111" stroke="#161616" stroke-width="20" stroke-linecap="round" stroke-linejoin="round"/>
</g>
<g clip-path="url(#clip2_202_117)">
<path d="M119.167 810H60.8332" stroke="#161616" stroke-width="7" stroke-linecap="round" stroke-linejoin="round"/>
<path d="M77.5 793.333L60.8333 810" stroke="#161616" stroke-width="7" stroke-linecap="round" stroke-linejoin="round"/>
<path d="M77.5 826.667L60.8333 810" stroke="#161616" stroke-width="7" stroke-linecap="round" stroke-linejoin="round"/>
</g>
<g clip-path="url(#clip3_202_117)">
<path d="M480.833 90H539.167" stroke="#161616" stroke-width="7" stroke-linecap="round" stroke-linejoin="round"/>
<path d="M522.5 106.667L539.167 90" stroke="#161616" stroke-width="7" stroke-linecap="round" stroke-linejoin="round"/>
<path d="M522.5 73.3335L539.167 90.0002" stroke="#161616" stroke-width="7" stroke-linecap="round" stroke-linejoin="round"/>
</g>
</g>
<rect x="3.5" y="3.5" width="593" height="893" rx="26.5" stroke="#161616" stroke-width="7"/>
<defs>
<clipPath id="clip0_202_117">
<rect width="600" height="900" rx="30" fill="#F2F2F2"/>
</clipPath>
<clipPath id="clip1_202_117">
<rect width="200" height="200" fill="#F2F2F2" transform="translate(200 350)"/>
</clipPath>
<clipPath id="clip2_202_117">
<rect width="100" height="100" fill="#F2F2F2" transform="matrix(-1 0 0 -1 140 860)"/>
</clipPath>
<clipPath id="clip3_202_117">
<rect width="100" height="100" fill="#F2F2F2" transform="translate(460 40)"/>
</clipPath>
</defs>
</svg>
