<svg width="600" height="900" viewBox="0 0 600 900" fill="none" xmlns="http://www.w3.org/2000/svg">
<g clip-path="url(#clip0_202_59)">
<rect width="600" height="900" rx="30" fill="#F2F2F2"/>
<path d="M497.392 232.575C534.132 265.874 546.167 320.233 535.061 381.931C523.965 443.571 489.82 511.967 435.096 572.348C380.372 632.728 315.652 673.415 255.397 690.501C195.085 707.603 139.808 700.956 103.068 667.658C66.3277 634.359 54.2927 580 65.3989 518.302C76.4949 456.662 110.64 388.265 165.364 327.884C220.088 267.504 284.807 226.818 345.063 209.732C405.374 192.63 460.652 199.277 497.392 232.575Z" stroke="#161616" stroke-width="7"/>
<g clip-path="url(#clip1_202_59)">
<path d="M501.667 89.9998C501.667 92.21 502.544 94.3296 504.107 95.8924C505.67 97.4552 507.79 98.3332 510 98.3332C512.21 98.3332 514.33 97.4552 515.892 95.8924C517.455 94.3296 518.333 92.21 518.333 89.9998C518.333 87.7897 517.455 85.6701 515.892 84.1073C514.33 82.5445 512.21 81.6665 510 81.6665C507.79 81.6665 505.67 82.5445 504.107 84.1073C502.544 85.6701 501.667 87.7897 501.667 89.9998Z" stroke="#161616" stroke-width="7" stroke-linecap="round" stroke-linejoin="round"/>
<path d="M547.5 90C537.5 106.667 525 115 510 115C495 115 482.5 106.667 472.5 90C482.5 73.3333 495 65 510 65C525 65 537.5 73.3333 547.5 90Z" stroke="#161616" stroke-width="7" stroke-linecap="round" stroke-linejoin="round"/>
</g>
<g clip-path="url(#clip2_202_59)">
<path d="M81.6665 810C81.6665 812.21 82.5445 814.33 84.1073 815.893C85.6701 817.456 87.7897 818.334 89.9998 818.334C92.21 818.334 94.3296 817.456 95.8924 815.893C97.4552 814.33 98.3332 812.21 98.3332 810C98.3332 807.79 97.4552 805.671 95.8924 804.108C94.3296 802.545 92.21 801.667 89.9998 801.667C87.7897 801.667 85.6701 802.545 84.1073 804.108C82.5445 805.671 81.6665 807.79 81.6665 810Z" stroke="#161616" stroke-width="7" stroke-linecap="round" stroke-linejoin="round"/>
<path d="M127.5 810C117.5 826.667 105 835 90 835C75 835 62.5 826.667 52.5 810C62.5 793.333 75 785 90 785C105 785 117.5 793.333 127.5 810Z" stroke="#161616" stroke-width="7" stroke-linecap="round" stroke-linejoin="round"/>
</g>
<g clip-path="url(#clip3_202_59)">
<path d="M300 383.333C335.75 383.333 365.525 403.575 388.875 442.95L390.708 446.108L391.083 446.942L391.333 447.633L391.45 448.092L391.567 448.775L391.658 449.608V450.525L391.542 451.45C391.487 451.76 391.414 452.066 391.325 452.367L391 453.267L390.7 453.892L390.567 454.142C367.533 494.442 338.067 515.642 302.608 516.633L300 516.667C263.367 516.667 233.025 495.425 209.433 454.133C208.714 452.875 208.336 451.45 208.336 450C208.336 448.55 208.714 447.126 209.433 445.867C233.025 404.575 263.367 383.333 300 383.333ZM300 425C293.369 425 287.011 427.634 282.322 432.322C277.634 437.011 275 443.37 275 450C275 456.631 277.634 462.989 282.322 467.678C287.011 472.366 293.369 475 300 475C306.63 475 312.989 472.366 317.678 467.678C322.366 462.989 325 456.631 325 450C325 443.37 322.366 437.011 317.678 432.322C312.989 427.634 306.63 425 300 425Z" fill="#161616"/>
</g>
</g>
<rect x="3.5" y="3.5" width="593" height="893" rx="26.5" stroke="#161616" stroke-width="7"/>
<defs>
<clipPath id="clip0_202_59">
<rect width="600" height="900" rx="30" fill="#F2F2F2"/>
</clipPath>
<clipPath id="clip1_202_59">
<rect width="100" height="100" fill="#F2F2F2" transform="translate(460 40)"/>
</clipPath>
<clipPath id="clip2_202_59">
<rect width="100" height="100" fill="#F2F2F2" transform="translate(40 760)"/>
</clipPath>
<clipPath id="clip3_202_59">
<rect width="200" height="200" fill="#F2F2F2" transform="translate(200 350)"/>
</clipPath>
</defs>
</svg>
