<svg width="600" height="900" viewBox="0 0 600 900" fill="none" xmlns="http://www.w3.org/2000/svg">
<g clip-path="url(#clip0_202_26)">
<rect width="600" height="900" rx="30" fill="white"/>
<path d="M497.392 232.575C534.132 265.874 546.167 320.233 535.061 381.931C523.965 443.571 489.82 511.967 435.096 572.348C380.372 632.728 315.652 673.415 255.397 690.501C195.085 707.603 139.808 700.956 103.068 667.658C66.3277 634.359 54.2927 580 65.3989 518.302C76.4949 456.662 110.64 388.265 165.364 327.884C220.088 267.504 284.807 226.818 345.063 209.732C405.374 192.63 460.652 199.277 497.392 232.575Z" stroke="#161616" stroke-width="7"/>
<g clip-path="url(#clip1_202_26)">
<path d="M283.333 366.667C283.333 359.334 292.133 355.575 297.433 360.65C313.75 376.284 323.233 410.609 312.016 436.65L311.35 438.1L311.45 438.125C316.658 439.234 321.475 434.542 330.641 420.017L331.808 418.15C332.484 417.062 333.402 416.144 334.491 415.468C335.579 414.792 336.809 414.376 338.084 414.253C339.36 414.13 340.646 414.302 341.844 414.757C343.042 415.212 344.119 415.937 344.991 416.875C356.108 428.834 366.666 453.35 366.666 469.125C366.666 504.667 336.741 533.334 300 533.334C263.258 533.334 233.333 504.667 233.333 469.117C233.333 450.35 241.85 429.817 255.266 416.609L260.308 411.7C262.316 409.734 263.925 408.117 265.458 406.5C277.375 393.9 283.333 382.134 283.333 366.667Z" fill="#161616"/>
</g>
<g clip-path="url(#clip2_202_26)">
<path d="M510 85.5877C519.721 71.8043 510.696 52.9918 505.833 48.3335C505.833 62.4793 496.521 70.4127 490.554 76.2752C484.596 82.1418 480.833 90.0002 480.833 99.5585C480.833 114.992 493.892 127.5 510 127.5C526.108 127.5 539.167 114.992 539.167 99.5585C539.167 92.4252 534.033 81.2127 529.446 76.2752C520.763 90.246 515.875 90.246 510 85.5877Z" stroke="#161616" stroke-width="7" stroke-linecap="round" stroke-linejoin="round"/>
</g>
<g clip-path="url(#clip3_202_26)">
<path d="M89.9997 805.587C99.7205 791.804 90.6955 772.991 85.833 768.333C85.833 782.479 76.5205 790.412 70.5538 796.275C64.5955 802.141 60.833 810 60.833 819.558C60.833 834.991 73.8913 847.5 89.9997 847.5C106.108 847.5 119.166 834.991 119.166 819.558C119.166 812.425 114.033 801.212 109.446 796.275C100.762 810.246 95.8747 810.246 89.9997 805.587Z" stroke="#161616" stroke-width="7" stroke-linecap="round" stroke-linejoin="round"/>
</g>
</g>
<rect x="3.5" y="3.5" width="593" height="893" rx="26.5" stroke="#161616" stroke-width="7"/>
<defs>
<clipPath id="clip0_202_26">
<rect width="600" height="900" rx="30" fill="white"/>
</clipPath>
<clipPath id="clip1_202_26">
<rect width="200" height="200" fill="white" transform="translate(200 350)"/>
</clipPath>
<clipPath id="clip2_202_26">
<rect width="100" height="100" fill="white" transform="translate(460 40)"/>
</clipPath>
<clipPath id="clip3_202_26">
<rect width="100" height="100" fill="white" transform="translate(40 760)"/>
</clipPath>
</defs>
</svg>
